<svg width="18" height="16" viewBox="0 0 18 16" fill="none" xmlns="http://www.w3.org/2000/svg">
<path d="M16.3666 1.84166C15.941 1.41583 15.4356 1.07803 14.8794 0.847565C14.3232 0.617097 13.727 0.498474 13.1249 0.498474C12.5229 0.498474 11.9267 0.617097 11.3705 0.847565C10.8143 1.07803 10.3089 1.41583 9.88327 1.84166L8.99994 2.725L8.1166 1.84166C7.25686 0.981919 6.0908 0.49892 4.87494 0.49892C3.65908 0.49892 2.49301 0.981919 1.63327 1.84166C0.773526 2.70141 0.290527 3.86747 0.290527 5.08333C0.290527 6.29919 0.773526 7.46525 1.63327 8.325L2.5166 9.20833L8.99994 15.6917L15.4833 9.20833L16.3666 8.325C16.7924 7.89937 17.1302 7.39401 17.3607 6.83779C17.5912 6.28158 17.7098 5.6854 17.7098 5.08333C17.7098 4.48126 17.5912 3.88508 17.3607 3.32887C17.1302 2.77265 16.7924 2.26729 16.3666 1.84166Z" fill="white"/>
</svg>
