<svg width="20" height="18" viewBox="0 0 20 18" fill="none" xmlns="http://www.w3.org/2000/svg">
<path d="M17.3666 2.84166C16.941 2.41583 16.4356 2.07803 15.8794 1.84757C15.3232 1.6171 14.727 1.49847 14.1249 1.49847C13.5229 1.49847 12.9267 1.6171 12.3705 1.84757C11.8143 2.07803 11.3089 2.41583 10.8833 2.84166L9.99994 3.725L9.1166 2.84166C8.25686 1.98192 7.0908 1.49892 5.87494 1.49892C4.65908 1.49892 3.49301 1.98192 2.63327 2.84166C1.77353 3.70141 1.29053 4.86747 1.29053 6.08333C1.29053 7.29919 1.77353 8.46525 2.63327 9.325L3.5166 10.2083L9.99994 16.6917L16.4833 10.2083L17.3666 9.325C17.7924 8.89937 18.1302 8.39401 18.3607 7.83779C18.5912 7.28158 18.7098 6.6854 18.7098 6.08333C18.7098 5.48126 18.5912 4.88508 18.3607 4.32887C18.1302 3.77265 17.7924 3.26729 17.3666 2.84166V2.84166Z" stroke="#F46D5C" stroke-width="2" stroke-linecap="round" stroke-linejoin="round"/>
</svg>
